<svg width="32" height="32" viewBox="0 0 32 32" fill="none" xmlns="http://www.w3.org/2000/svg">
  <rect width="32" height="32" rx="8" fill="#3B82F6"/>
  <path d="M16 8C14.4178 8 12.871 8.46919 11.5554 9.34824C10.2399 10.2273 9.21447 11.4767 8.60897 12.9385C8.00347 14.4003 7.84504 16.0089 8.15372 17.5607C8.4624 19.1126 9.22433 20.538 10.3431 21.6569C11.462 22.7757 12.8874 23.5376 14.4393 23.8463C15.9911 24.155 17.5997 23.9965 19.0615 23.391C20.5233 22.7855 21.7727 21.7601 22.6518 20.4446C23.5308 19.129 24 17.5822 24 16L20 16C20 16.7911 19.7654 17.5645 19.3259 18.2223C18.8864 18.8802 18.2616 19.3928 17.5307 19.6955C16.7998 19.9983 15.9956 20.0775 15.2196 19.9231C14.4437 19.7688 13.731 19.3878 13.1716 18.8284C12.6122 18.269 12.2312 17.5563 12.0769 16.7804C11.9225 16.0044 12.0017 15.2002 12.3045 14.4693C12.6072 13.7384 13.1198 13.1136 13.7777 12.6741C14.4355 12.2346 15.2089 12 16 12L16 8Z" fill="white"/>
</svg> 